<svg width="292" height="38" viewBox="0 0 292 38" fill="none" xmlns="http://www.w3.org/2000/svg">
<path d="M0.188 5.06H20.708V11H19.88C19.736 9.704 19.352 8.648 18.728 7.832C18.104 7.016 17.036 6.608 15.524 6.608H13.328V25.4C13.328 26.576 13.508 27.32 13.868 27.632C14.228 27.944 14.888 28.124 15.848 28.172V29H5.588V28.172C6.284 28.124 6.788 27.944 7.1 27.632C7.412 27.32 7.568 26.576 7.568 25.4V6.608H5.336C3.872 6.608 2.816 7.016 2.168 7.832C1.544 8.648 1.16 9.704 1.016 11H0.188V5.06ZM23.1715 29.54C21.8515 29.54 20.8675 29.144 20.2195 28.352C19.5955 27.56 19.2835 26.648 19.2835 25.616C19.2835 24.032 20.0035 22.748 21.4435 21.764C22.9075 20.78 25.1635 19.88 28.2115 19.064V17.156C28.2115 16.028 27.9715 15.224 27.4915 14.744C27.0355 14.24 26.3875 13.988 25.5475 13.988C24.3955 13.988 23.4355 14.42 22.6675 15.284C21.9235 16.148 21.4075 17.312 21.1195 18.776H20.2915V13.592C21.1075 13.184 22.1635 12.8 23.4595 12.44C24.7795 12.08 26.2075 11.9 27.7435 11.9C31.8955 11.9 33.9715 13.508 33.9715 16.724V24.572C33.9715 25.124 34.0435 25.556 34.1875 25.868C34.3315 26.156 34.6195 26.3 35.0515 26.3C35.2915 26.3 35.5555 26.252 35.8435 26.156C36.1555 26.036 36.4795 25.82 36.8155 25.508L37.3915 26.084C36.8635 27.188 36.1675 28.016 35.3035 28.568C34.4395 29.096 33.4555 29.36 32.3515 29.36C31.1755 29.36 30.2635 29.132 29.6155 28.676C28.9915 28.196 28.5475 27.512 28.2835 26.624H28.2115C27.6595 27.584 26.9275 28.316 26.0155 28.82C25.1035 29.3 24.1555 29.54 23.1715 29.54ZM25.9795 26.3C26.4595 26.3 26.8795 26.192 27.2395 25.976C27.6235 25.736 27.9475 25.472 28.2115 25.184V20.504C27.1075 20.816 26.2675 21.224 25.6915 21.728C25.1395 22.232 24.7675 22.736 24.5755 23.24C24.4075 23.744 24.3235 24.164 24.3235 24.5C24.3235 25.004 24.4675 25.436 24.7555 25.796C25.0435 26.132 25.4515 26.3 25.9795 26.3ZM44.0579 25.04C44.0579 25.928 44.1179 26.6 44.2379 27.056C44.3579 27.488 44.5739 27.776 44.8859 27.92C45.1979 28.064 45.6419 28.148 46.2179 28.172V29H37.0379V28.172C37.4459 28.148 37.7699 28.064 38.0099 27.92C38.2499 27.776 38.4179 27.488 38.5139 27.056C38.6099 26.6 38.6579 25.928 38.6579 25.04V5.636C38.6579 5.276 38.5859 5.036 38.4419 4.916C38.3219 4.796 38.1299 4.736 37.8659 4.736C37.6739 4.736 37.4579 4.76 37.2179 4.808C37.0019 4.856 36.7619 4.928 36.4979 5.024L36.1379 4.196L43.9859 0.559999L44.2019 0.775999C44.1779 1.136 44.1419 1.7 44.0939 2.468C44.0699 3.212 44.0579 4.16 44.0579 5.312V25.04ZM53.9734 25.04C53.9734 25.928 54.0094 26.6 54.0814 27.056C54.1774 27.488 54.3454 27.776 54.5854 27.92C54.8254 28.064 55.1614 28.148 55.5934 28.172V29H46.9534V28.172C47.3614 28.148 47.6854 28.064 47.9254 27.92C48.1654 27.776 48.3334 27.488 48.4294 27.056C48.5254 26.6 48.5734 25.928 48.5734 25.04V5.636C48.5734 5.276 48.5014 5.036 48.3574 4.916C48.2374 4.796 48.0454 4.736 47.7814 4.736C47.5894 4.736 47.3734 4.76 47.1334 4.808C46.9174 4.856 46.6774 4.928 46.4134 5.024L46.0534 4.196L53.9014 0.559999L54.1174 0.775999C54.0934 1.136 54.0574 1.7 54.0094 2.468C53.9854 3.212 53.9734 4.16 53.9734 5.312V20.684H54.0454L58.5814 16.004C58.9174 15.668 59.1694 15.392 59.3374 15.176C59.5054 14.936 59.5894 14.696 59.5894 14.456C59.5894 14.24 59.4934 14 59.3014 13.736C59.1334 13.472 58.6894 13.316 57.9694 13.268V12.44H65.2414V13.268C64.5214 13.316 63.8614 13.532 63.2614 13.916C62.6614 14.3 62.1334 14.72 61.6774 15.176L59.5894 17.336L63.6574 25.292C64.2334 26.42 64.7254 27.188 65.1334 27.596C65.5654 27.98 65.9854 28.172 66.3934 28.172V29C65.6014 29.36 64.6534 29.54 63.5494 29.54C62.3254 29.54 61.2694 29.288 60.3814 28.784C59.5174 28.28 58.8694 27.608 58.4374 26.768L55.6654 21.368L53.9734 23.096V25.04ZM80.7777 29.36C80.5857 28.736 80.4057 28.196 80.2377 27.74C80.0697 27.26 79.8537 26.732 79.5897 26.156L75.2337 16.04C74.8977 15.224 74.6217 14.636 74.4057 14.276C74.1897 13.892 73.9857 13.64 73.7937 13.52C73.6017 13.376 73.3377 13.292 73.0017 13.268V12.44H81.6777V13.268C81.1977 13.292 80.8857 13.448 80.7417 13.736C80.6217 14.024 80.5977 14.372 80.6697 14.78C80.7657 15.188 80.8977 15.608 81.0657 16.04L83.6577 22.16H83.7297L86.0697 16.796L85.7457 16.04C85.4337 15.224 85.1697 14.636 84.9537 14.276C84.7377 13.892 84.5457 13.64 84.3777 13.52C84.2337 13.376 84.0537 13.292 83.8377 13.268V12.44H92.3697V13.268C91.7697 13.292 91.3737 13.448 91.1817 13.736C91.0137 14.024 90.9657 14.372 91.0377 14.78C91.1097 15.188 91.2297 15.608 91.3977 16.04L93.8457 22.16H93.9177L96.1497 16.04C96.3177 15.608 96.4017 15.188 96.4017 14.78C96.4017 14.372 96.2577 14.024 95.9697 13.736C95.7057 13.448 95.2257 13.292 94.5297 13.268V12.44H100.398V13.268C99.8457 13.316 99.3777 13.628 98.9937 14.204C98.6097 14.78 98.2857 15.392 98.0217 16.04L94.1337 26.156C93.8937 26.804 93.7017 27.344 93.5577 27.776C93.4377 28.208 93.3057 28.736 93.1617 29.36H91.1097C90.9417 28.736 90.7497 28.196 90.5337 27.74C90.3177 27.26 90.0897 26.732 89.8497 26.156L86.9697 19.064L83.8737 26.156C83.5857 26.804 83.3697 27.344 83.2257 27.776C83.1057 28.208 82.9737 28.736 82.8297 29.36H80.7777ZM107.135 25.04C107.135 25.928 107.195 26.6 107.315 27.056C107.435 27.488 107.651 27.776 107.963 27.92C108.275 28.064 108.719 28.148 109.295 28.172V29H100.115V28.172C100.523 28.148 100.847 28.064 101.087 27.92C101.327 27.776 101.495 27.488 101.591 27.056C101.687 26.6 101.735 25.928 101.735 25.04V16.76C101.735 16.4 101.663 16.16 101.519 16.04C101.399 15.92 101.207 15.86 100.943 15.86C100.751 15.86 100.535 15.884 100.295 15.932C100.079 15.98 99.8387 16.052 99.5747 16.148L99.2147 15.32L107.063 11.684L107.279 11.9C107.255 12.26 107.219 12.824 107.171 13.592C107.147 14.336 107.135 15.284 107.135 16.436V25.04ZM104.615 9.92C103.727 9.92 102.983 9.62 102.383 9.02C101.783 8.396 101.483 7.664 101.483 6.824C101.483 5.984 101.783 5.252 102.383 4.628C102.983 4.004 103.727 3.692 104.615 3.692C105.479 3.692 106.211 4.004 106.811 4.628C107.411 5.252 107.711 5.984 107.711 6.824C107.711 7.664 107.411 8.396 106.811 9.02C106.211 9.62 105.479 9.92 104.615 9.92ZM121.801 25.328L122.377 25.904C122.113 26.504 121.753 27.08 121.297 27.632C120.841 28.184 120.253 28.64 119.533 29C118.837 29.36 117.973 29.54 116.941 29.54C115.237 29.54 113.941 29.036 113.053 28.028C112.165 27.02 111.721 25.724 111.721 24.14V14.348H109.561V12.44H111.721V7.58L117.301 7.04C117.229 7.952 117.181 8.852 117.157 9.74C117.133 10.628 117.121 11.528 117.121 12.44H121.801V14.348H118.561C117.601 14.348 117.121 14.828 117.121 15.788V23.42C117.121 25.34 117.901 26.3 119.461 26.3C120.373 26.3 121.153 25.976 121.801 25.328ZM140.226 25.04C140.226 25.928 140.286 26.6 140.406 27.056C140.526 27.488 140.742 27.776 141.054 27.92C141.366 28.064 141.81 28.148 142.386 28.172V29H133.206V28.172C133.614 28.148 133.938 28.064 134.178 27.92C134.418 27.776 134.586 27.488 134.682 27.056C134.778 26.6 134.826 25.928 134.826 25.04V17.876C134.826 17.18 134.718 16.616 134.502 16.184C134.286 15.728 133.758 15.5 132.918 15.5C132.462 15.5 131.946 15.572 131.37 15.716C130.818 15.86 130.17 16.172 129.426 16.652V25.04C129.426 25.928 129.486 26.6 129.606 27.056C129.726 27.488 129.942 27.776 130.254 27.92C130.566 28.064 131.01 28.148 131.586 28.172V29H122.406V28.172C122.814 28.148 123.138 28.064 123.378 27.92C123.618 27.776 123.786 27.488 123.882 27.056C123.978 26.6 124.026 25.928 124.026 25.04V5.636C124.026 5.276 123.954 5.036 123.81 4.916C123.69 4.796 123.498 4.736 123.234 4.736C123.042 4.736 122.826 4.76 122.586 4.808C122.37 4.856 122.13 4.928 121.866 5.024L121.506 4.196L129.354 0.559999L129.57 0.775999C129.546 1.136 129.51 1.7 129.462 2.468C129.438 3.212 129.426 4.16 129.426 5.312V15.392C129.906 14.84 130.47 14.3 131.118 13.772C131.766 13.244 132.486 12.8 133.278 12.44C134.094 12.08 134.97 11.9 135.906 11.9C137.394 11.9 138.486 12.26 139.182 12.98C139.878 13.676 140.226 14.804 140.226 16.364V25.04ZM152.063 29V28.172C152.759 28.124 153.263 27.944 153.575 27.632C153.887 27.32 154.043 26.576 154.043 25.4V8.66C154.043 7.484 153.863 6.74 153.503 6.428C153.167 6.092 152.507 5.912 151.523 5.888V5.06H169.199V10.1H168.371C168.323 9.068 167.963 8.228 167.291 7.58C166.643 6.932 165.635 6.608 164.267 6.608H161.387C160.883 6.608 160.487 6.74 160.199 7.004C159.935 7.268 159.803 7.82 159.803 8.66V15.752C159.995 15.608 160.223 15.512 160.487 15.464C160.775 15.416 161.111 15.392 161.495 15.392H164.987C165.707 15.392 166.307 15.188 166.787 14.78C167.267 14.372 167.519 13.808 167.543 13.088H168.371V19.208H167.543C167.519 18.32 167.267 17.72 166.787 17.408C166.307 17.096 165.707 16.94 164.987 16.94H161.567C160.919 16.94 160.463 17.048 160.199 17.264C159.935 17.48 159.803 17.9 159.803 18.524V25.4C159.803 26.24 159.983 26.792 160.343 27.056C160.727 27.32 161.459 27.452 162.539 27.452H165.959C167.399 27.452 168.539 27.02 169.379 26.156C170.219 25.292 170.687 24.26 170.783 23.06H171.611L171.323 29H152.063ZM178.572 29.36C178.404 28.736 178.224 28.196 178.032 27.74C177.84 27.26 177.6 26.732 177.312 26.156L172.344 16.04C171.96 15.248 171.648 14.66 171.408 14.276C171.168 13.892 170.952 13.64 170.76 13.52C170.592 13.376 170.376 13.292 170.112 13.268V12.44H179.148V13.268C178.548 13.292 178.152 13.448 177.96 13.736C177.768 14.024 177.708 14.372 177.78 14.78C177.852 15.188 177.984 15.608 178.176 16.04L181.2 22.34H181.272L183.9 16.04C184.164 15.416 184.176 14.816 183.936 14.24C183.72 13.64 183.216 13.316 182.424 13.268V12.44H188.148V13.268C187.596 13.316 187.128 13.64 186.744 14.24C186.36 14.816 186.036 15.416 185.772 16.04L181.488 26.156C181.224 26.804 181.032 27.344 180.912 27.776C180.792 28.208 180.66 28.736 180.516 29.36H178.572ZM196.404 29.54C194.772 29.54 193.284 29.192 191.94 28.496C190.62 27.8 189.564 26.804 188.772 25.508C188.004 24.212 187.62 22.676 187.62 20.9C187.62 18.98 188.052 17.348 188.916 16.004C189.78 14.66 190.92 13.64 192.336 12.944C193.776 12.248 195.312 11.9 196.944 11.9C199.152 11.9 200.82 12.5 201.948 13.7C203.1 14.876 203.676 16.424 203.676 18.344L193.056 19.676C193.2 21.716 193.8 23.18 194.856 24.068C195.912 24.956 197.136 25.4 198.528 25.4C199.224 25.4 200.016 25.28 200.904 25.04C201.792 24.776 202.596 24.308 203.316 23.636L203.892 24.212C203.22 25.82 202.296 27.116 201.12 28.1C199.968 29.06 198.396 29.54 196.404 29.54ZM195.864 13.448C195.048 13.448 194.388 13.88 193.884 14.744C193.38 15.584 193.092 16.748 193.02 18.236L198.24 17.588C198.192 16.46 197.988 15.488 197.628 14.672C197.292 13.856 196.704 13.448 195.864 13.448ZM204.609 29V28.172C205.017 28.148 205.341 28.064 205.581 27.92C205.821 27.776 205.989 27.488 206.085 27.056C206.181 26.6 206.229 25.928 206.229 25.04V16.76C206.229 16.4 206.157 16.16 206.013 16.04C205.893 15.92 205.701 15.86 205.437 15.86C205.149 15.86 204.813 15.908 204.429 16.004L204.069 15.176L211.557 11.684L211.773 11.9C211.725 12.116 211.665 12.584 211.593 13.304C211.545 14.024 211.521 14.84 211.521 15.752H211.593C212.481 14.408 213.477 13.436 214.581 12.836C215.709 12.236 216.921 11.984 218.217 12.08C218.409 14.168 218.409 16.268 218.217 18.38H217.389C217.221 17.3 216.897 16.616 216.417 16.328C215.937 16.04 215.433 15.896 214.905 15.896C214.305 15.896 213.741 15.98 213.213 16.148C212.685 16.292 212.157 16.58 211.629 17.012V25.04C211.629 25.928 211.689 26.6 211.809 27.056C211.929 27.488 212.169 27.776 212.529 27.92C212.913 28.064 213.453 28.148 214.149 28.172V29H204.609ZM220.821 37.46C219.741 37.46 218.985 37.136 218.553 36.488C218.121 35.84 217.905 35.096 217.905 34.256C217.905 33.848 217.953 33.368 218.049 32.816C218.145 32.264 218.289 31.712 218.481 31.16H219.309C219.477 32.048 219.705 32.708 219.993 33.14C220.281 33.596 220.737 33.824 221.361 33.824C222.201 33.824 222.993 33.356 223.737 32.42C224.481 31.508 225.165 30.248 225.789 28.64L219.777 16.04C219.417 15.248 219.117 14.672 218.877 14.312C218.637 13.928 218.421 13.664 218.229 13.52C218.037 13.376 217.809 13.292 217.545 13.268V12.44H226.653V13.268C226.053 13.292 225.657 13.448 225.465 13.736C225.273 14.024 225.213 14.372 225.285 14.78C225.357 15.188 225.489 15.608 225.681 16.04L228.561 22.34H228.633L231.405 16.04C231.669 15.416 231.681 14.816 231.441 14.24C231.225 13.64 230.721 13.316 229.929 13.268V12.44H235.725V13.268C235.173 13.316 234.705 13.64 234.321 14.24C233.937 14.816 233.613 15.416 233.349 16.04L228.885 26.156C227.733 28.772 226.725 30.908 225.861 32.564C225.021 34.244 224.205 35.48 223.413 36.272C222.645 37.064 221.781 37.46 220.821 37.46ZM244.623 11.9C246.375 11.9 247.911 12.26 249.231 12.98C250.575 13.676 251.631 14.672 252.399 15.968C253.167 17.264 253.551 18.776 253.551 20.504C253.551 22.4 253.107 24.02 252.219 25.364C251.331 26.708 250.167 27.74 248.727 28.46C247.311 29.18 245.775 29.54 244.119 29.54C242.391 29.54 240.855 29.18 239.511 28.46C238.167 27.74 237.111 26.744 236.343 25.472C235.575 24.176 235.191 22.664 235.191 20.936C235.191 19.04 235.635 17.42 236.523 16.076C237.411 14.732 238.563 13.7 239.979 12.98C241.419 12.26 242.967 11.9 244.623 11.9ZM244.731 27.992C245.619 27.992 246.351 27.488 246.927 26.48C247.503 25.472 247.791 23.912 247.791 21.8C247.791 20.264 247.635 18.872 247.323 17.624C247.011 16.352 246.567 15.344 245.991 14.6C245.439 13.832 244.779 13.448 244.011 13.448C243.123 13.448 242.391 13.952 241.815 14.96C241.239 15.968 240.951 17.528 240.951 19.64C240.951 21.176 241.107 22.58 241.419 23.852C241.731 25.1 242.175 26.108 242.751 26.876C243.327 27.62 243.987 27.992 244.731 27.992ZM272.39 25.04C272.39 25.928 272.45 26.6 272.57 27.056C272.69 27.488 272.906 27.776 273.218 27.92C273.53 28.064 273.974 28.148 274.55 28.172V29H265.37V28.172C265.778 28.148 266.102 28.064 266.342 27.92C266.582 27.776 266.75 27.488 266.846 27.056C266.942 26.6 266.99 25.928 266.99 25.04V17.876C266.99 17.18 266.882 16.616 266.666 16.184C266.45 15.728 265.922 15.5 265.082 15.5C264.626 15.5 264.11 15.572 263.534 15.716C262.982 15.86 262.334 16.172 261.59 16.652V25.04C261.59 25.928 261.65 26.6 261.77 27.056C261.89 27.488 262.106 27.776 262.418 27.92C262.73 28.064 263.174 28.148 263.75 28.172V29H254.57V28.172C254.978 28.148 255.302 28.064 255.542 27.92C255.782 27.776 255.95 27.488 256.046 27.056C256.142 26.6 256.19 25.928 256.19 25.04V16.76C256.19 16.4 256.118 16.16 255.974 16.04C255.854 15.92 255.662 15.86 255.398 15.86C255.11 15.86 254.774 15.908 254.39 16.004L254.03 15.176L261.518 11.684L261.734 11.9C261.686 12.116 261.626 12.572 261.554 13.268C261.506 13.964 261.482 14.672 261.482 15.392H261.59C262.07 14.84 262.634 14.3 263.282 13.772C263.93 13.244 264.65 12.8 265.442 12.44C266.258 12.08 267.134 11.9 268.07 11.9C269.558 11.9 270.65 12.26 271.346 12.98C272.042 13.676 272.39 14.804 272.39 16.364V25.04ZM283.739 29.54C282.107 29.54 280.619 29.192 279.275 28.496C277.955 27.8 276.899 26.804 276.107 25.508C275.339 24.212 274.955 22.676 274.955 20.9C274.955 18.98 275.387 17.348 276.251 16.004C277.115 14.66 278.255 13.64 279.671 12.944C281.111 12.248 282.647 11.9 284.279 11.9C286.487 11.9 288.155 12.5 289.283 13.7C290.435 14.876 291.011 16.424 291.011 18.344L280.391 19.676C280.535 21.716 281.135 23.18 282.191 24.068C283.247 24.956 284.471 25.4 285.863 25.4C286.559 25.4 287.351 25.28 288.239 25.04C289.127 24.776 289.931 24.308 290.651 23.636L291.227 24.212C290.555 25.82 289.631 27.116 288.455 28.1C287.303 29.06 285.731 29.54 283.739 29.54ZM283.199 13.448C282.383 13.448 281.723 13.88 281.219 14.744C280.715 15.584 280.427 16.748 280.355 18.236L285.575 17.588C285.527 16.46 285.323 15.488 284.963 14.672C284.627 13.856 284.039 13.448 283.199 13.448Z" fill="black"/>
</svg>
